<svg width="31" height="21" fill="none" xmlns="http://www.w3.org/2000/svg"><rect x="1" y="1" width="29" height="19" rx="2" fill="#fff"/><rect x=".5" y=".5" width="30" height="20" rx="2.5" stroke="#E0F5FF" stroke-opacity=".5"/><mask id="a" style="mask-type:alpha" maskUnits="userSpaceOnUse" x="1" y="1" width="29" height="19"><rect x="1.25" y="1.25" width="28.5" height="18.5" rx="1.75" fill="#fff" stroke="#fff" stroke-width=".5"/></mask><g mask="url(#a)" fill="#FF3131"><path d="M22 1h8v19h-8z"/><path fill-rule="evenodd" clip-rule="evenodd" d="M1 20h8V1H1v19ZM18.203 9.803a.333.333 0 0 1-.548-.32l.488-2.197-1.429.643L16 6l-.714 1.929-1.429-.643.488 2.197a.333.333 0 0 1-.548.32l-.431-.388a.333.333 0 0 0-.446 0l-.491.442L11 9.214l.714 1.286-.439.395a.333.333 0 0 0 0 .496l1.868 1.68h2.143L15.643 15h.714l.357-1.929h2.143l1.868-1.68a.333.333 0 0 0 0-.496l-.44-.395L21 9.214l-1.429.643-.49-.442a.333.333 0 0 0-.447 0l-.431.388Z"/></g></svg>
