<svg width="32" height="21" fill="none" xmlns="http://www.w3.org/2000/svg"><path d="M2.286 20C1.576 20 1 19.391 1 18.643V2.357C1 1.61 1.577 1 2.286 1h27.428C30.424 1 31 1.609 31 2.357v16.286C31 19.39 30.423 20 29.714 20H2.286Z" fill="#039"/><path d="M.5 18.643c0 .998.775 1.857 1.786 1.857h27.428c1.01 0 1.786-.858 1.786-1.857V2.357C31.5 1.358 30.724.5 29.714.5H2.286C1.276.5.5 1.358.5 2.357v16.286Z" stroke="#E0F5FF" stroke-opacity=".3"/><path fill-rule="evenodd" clip-rule="evenodd" d="m15.599 5.584.792-.232.792.232-.232-.792.232-.792-.792.232L15.599 4l.232.792-.232.792Zm0 11.197.792-.232.792.232-.232-.792.232-.792-.792.232-.792-.232.232.792-.232.792Zm6.39-5.83-.791.231.232-.792-.232-.791.791.232.792-.232-.232.791.232.792-.792-.232ZM10 11.181l.792-.232.792.232-.232-.792.232-.791-.792.232L10 9.599l.232.791-.232.792Zm11.24-3.031-.792.232.232-.792-.232-.792.791.232.792-.232-.232.792.232.792-.792-.232Zm-10.49 5.83.792-.231.792.232-.232-.792.232-.792-.792.232-.792-.232.232.792-.232.792Zm8.44-7.88-.792.233.232-.792-.232-.792.792.232.792-.232-.232.792.232.792-.792-.232Zm-6.39 9.93.791-.232.792.232-.232-.792.232-.792-.792.232-.791-.232.231.792-.232.792Zm8.44-2.281-.792.232.232-.792-.232-.792.791.232.792-.232-.232.792.232.792-.792-.232ZM10.75 8.383l.792-.232.792.232-.232-.792.232-.792-.792.232-.792-.232.232.792-.232.792Zm8.44 7.416-.792.232.232-.792-.232-.792.792.232.792-.232-.232.792.232.792-.792-.232ZM12.8 6.334l.791-.232.792.232-.232-.792.232-.792-.792.232-.791-.232.231.792-.232.792Z" fill="#FFD429"/></svg>
