<svg width="31" height="21" fill="none" xmlns="http://www.w3.org/2000/svg"><path d="M2.633 19.568c-.675 0-1.225-.581-1.225-1.295V2.727c0-.714.55-1.295 1.225-1.295h26.142c.675 0 1.225.581 1.225 1.295v15.546c0 .714-.55 1.295-1.225 1.295H2.633Z" fill="#0A17A7"/><path d="M.908 18.273c0 .964.748 1.795 1.725 1.795h26.142c.977 0 1.725-.831 1.725-1.795V2.727c0-.964-.748-1.795-1.725-1.795H2.633c-.977 0-1.725.831-1.725 1.795v15.546Z" stroke="#E0F5FF" stroke-opacity=".3"/><mask id="a" style="mask-type:alpha" maskUnits="userSpaceOnUse" x="1" y="1" width="29" height="19"><path d="M2.633 19.568c-.675 0-1.225-.581-1.225-1.295V2.727c0-.714.55-1.295 1.225-1.295h26.142c.675 0 1.225.581 1.225 1.295v15.546c0 .714-.55 1.295-1.225 1.295H2.633Z" fill="#0A17A7"/></mask><g mask="url(#a)"><path d="M1-2.053h-2.205L.469-.617l11.136 9.545v2.468L.525 19.31l-.34.244v3.523l1.247-.78 12.854-8.034h2.768l11.068 7.906c.23.164.505.252.788.252 1.258 0 1.837-1.566.882-2.384L19.763 11.44V8.972l10.738-7.67c.429-.306.683-.8.683-1.327V-2.71l-1.248.78-12.854 8.034h-2.768L3.106-1.9l-.213-.152H1Z" fill="#DB1E36" stroke="#fff" stroke-width="1.632"/><path fill-rule="evenodd" clip-rule="evenodd" d="M1 6.921v6.526h11.42v8.158c0 .901.731 1.632 1.633 1.632h3.263c.9 0 1.631-.73 1.631-1.632v-8.158h11.421c.901 0 1.632-.73 1.632-1.631V8.553c0-.901-.73-1.632-1.632-1.632h-11.42v-8.158H12.42v8.158H1Z" fill="url(#b)"/><path fill-rule="evenodd" clip-rule="evenodd" d="M1 8.553h13.053v-9.79h3.263v9.79h13.052v3.263H17.316v9.789h-3.263v-9.789H1V8.553Z" fill="#DB1E36"/></g><defs><linearGradient id="b" x1="1" y1="-1.237" x2="1" y2="23.237" gradientUnits="userSpaceOnUse"><stop stop-color="#fff"/><stop offset="1" stop-color="#F0F0F0"/></linearGradient></defs></svg>
