<svg width="31" height="21" fill="none" xmlns="http://www.w3.org/2000/svg"><rect x="1" y="1" width="29" height="19" rx="2" fill="#fff"/><rect x=".5" y=".5" width="30" height="20" rx="2.5" stroke="#E0F5FF" stroke-opacity=".5"/><mask id="a" style="mask-type:alpha" maskUnits="userSpaceOnUse" x="1" y="1" width="29" height="19"><rect x="1.25" y="1.25" width="28.5" height="18.5" rx="1.75" fill="#fff" stroke="#fff" stroke-width=".5"/></mask><g mask="url(#a)"><path fill="#E3283E" d="M21 1h9.333v20H21z"/><path fill-rule="evenodd" clip-rule="evenodd" d="M1.1 20.143h9V.857h-9v19.286Z" fill="#128A60"/><path d="m14.998 12.065.335-.577-.335.577Zm.242.911.577.335-.577-.335Zm-.911.242.335-.576-.335.576Zm3.465-.075.36.562-.36-.562Zm-.92-.202-.562.359.561-.36Zm.202-.921.359.562-.36-.562Zm-2.41-1.687c0-.736-.596-1.333-1.333-1.333v1.333h1.334Zm.667 1.155a1.332 1.332 0 0 1-.666-1.155h-1.334c0 .986.535 1.847 1.33 2.309l.67-1.154Zm.484 1.823a1.333 1.333 0 0 0-.484-1.823l-.67 1.154 1.154.669Zm-1.823.484c.637.37 1.453.153 1.823-.484l-1.153-.67-.67 1.154ZM12 10.333c0 1.48.805 2.772 1.994 3.462l.67-1.153a2.666 2.666 0 0 1-1.33-2.309H12ZM13.333 9C12.597 9 12 9.597 12 10.333h1.333V9ZM20 10.333C20 9.597 19.403 9 18.667 9v1.333H20Zm-1.847 3.372A3.998 3.998 0 0 0 20 10.333h-1.333c0 .945-.491 1.775-1.232 2.248l.718 1.124Zm-1.841-.405c.396.62 1.22.801 1.841.405l-.718-1.123-1.123.718Zm.404-1.842a1.333 1.333 0 0 0-.404 1.842l1.123-.719-.719-1.123Zm.617-1.125c0 .472-.243.886-.617 1.125l.719 1.123a2.665 2.665 0 0 0 1.232-2.248h-1.334ZM18.667 9c-.737 0-1.334.597-1.334 1.333h1.334V9Z" fill="#8C9157"/><ellipse cx="16" cy="9.667" rx="1.333" ry="2" fill="#C59262"/></g></svg>
