<svg width="32" height="21" fill="none" xmlns="http://www.w3.org/2000/svg"><rect x="1" y="1" width="30" height="19" rx="2" fill="#fff"/><rect x=".5" y=".5" width="31" height="20" rx="2.5" stroke="#E0F5FF" stroke-opacity=".5"/><mask id="a" style="mask-type:alpha" maskUnits="userSpaceOnUse" x="1" y="1" width="30" height="19"><rect x="1" y="1" width="30" height="19" rx="2" fill="#fff"/></mask><g mask="url(#a)"><path fill-rule="evenodd" clip-rule="evenodd" d="M31 1H1v1.267h30V1Zm0 2.533H1V4.8h30V3.533ZM1 6.067h30v1.266H1V6.067ZM31 8.6H1v1.267h30V8.6ZM1 11.133h30V12.4H1v-1.267Zm30 2.534H1v1.266h30v-1.266ZM1 16.2h30v1.267H1V16.2Zm30 2.533H1V20h30v-1.267Z" fill="#D02F44"/><path fill="#46467F" d="M1 1h11.4v8.867H1z"/><g filter="url(#b)"><path fill-rule="evenodd" clip-rule="evenodd" d="M5.433 3.533a.633.633 0 1 0 0-1.266.633.633 0 0 0 0 1.266Zm-2.533 0a.633.633 0 1 0 0-1.266.633.633 0 0 0 0 1.266ZM8.6 2.9a.633.633 0 1 1-1.267 0 .633.633 0 0 1 1.267 0Zm1.9.633a.633.633 0 1 0 0-1.266.633.633 0 0 0 0 1.266Zm-5.7.634a.633.633 0 1 1-1.267 0 .633.633 0 0 1 1.267 0Zm1.9.633a.633.633 0 1 0 0-1.267.633.633 0 0 0 0 1.267Zm3.167-.633a.633.633 0 1 1-1.267 0 .633.633 0 0 1 1.267 0Zm.633 1.9a.633.633 0 1 0 0-1.267.633.633 0 0 0 0 1.267Zm-1.9-.634a.633.633 0 1 1-1.267 0 .633.633 0 0 1 1.267 0Zm-3.167.634a.633.633 0 1 0 0-1.267.633.633 0 0 0 0 1.267Zm-1.9-.634a.633.633 0 1 1-1.266 0 .633.633 0 0 1 1.266 0Zm.634 1.9a.633.633 0 1 0 0-1.266.633.633 0 0 0 0 1.266ZM7.333 6.7a.633.633 0 1 1-1.266 0 .633.633 0 0 1 1.266 0Zm1.9.633a.633.633 0 1 0 0-1.266.633.633 0 0 0 0 1.266Zm1.9.634a.633.633 0 1 1-1.266 0 .633.633 0 0 1 1.266 0ZM7.967 8.6a.633.633 0 1 0 0-1.267.633.633 0 0 0 0 1.267Zm-1.9-.633a.633.633 0 1 1-1.267 0 .633.633 0 0 1 1.267 0ZM2.9 8.6a.633.633 0 1 0 0-1.267.633.633 0 0 0 0 1.267Z" fill="url(#c)"/></g></g><defs><linearGradient id="c" x1="2.267" y1="2.267" x2="2.267" y2="8.6" gradientUnits="userSpaceOnUse"><stop stop-color="#fff"/><stop offset="1" stop-color="#F0F0F0"/></linearGradient><filter id="b" x="2.267" y="2.267" width="8.867" height="7.333" filterUnits="userSpaceOnUse" color-interpolation-filters="sRGB"><feFlood flood-opacity="0" result="BackgroundImageFix"/><feColorMatrix in="SourceAlpha" values="0 0 0 0 0 0 0 0 0 0 0 0 0 0 0 0 0 0 127 0" result="hardAlpha"/><feOffset dy="1"/><feColorMatrix values="0 0 0 0 0 0 0 0 0 0 0 0 0 0 0 0 0 0 0.06 0"/><feBlend in2="BackgroundImageFix" result="effect1_dropShadow_275_77"/><feBlend in="SourceGraphic" in2="effect1_dropShadow_275_77" result="shape"/></filter></defs></svg>
